<?xml version="1.0" standalone="no"?><!-- Generator: Gravit.io --><svg xmlns="http://www.w3.org/2000/svg" xmlns:xlink="http://www.w3.org/1999/xlink" style="isolation:isolate" viewBox="0 0 28.765 32" width="28.765" height="32"><path d=" M 20.487 26.986 C 21.292 27.403 22.185 27.623 23.092 27.623 C 26.218 27.623 28.765 25.083 28.765 21.951 C 28.765 19.572 27.257 17.442 25.054 16.629 C 25.12 15.978 25.164 15.312 25.171 14.646 C 25.172 14.509 25.119 14.377 25.023 14.28 C 24.927 14.182 24.796 14.127 24.659 14.126 L 0.512 14.126 C 0.375 14.127 0.244 14.182 0.148 14.28 C 0.052 14.377 -0.001 14.509 0 14.646 C 0.037 18.218 0.966 21.592 2.686 24.403 C 3.909 26.393 5.49 28.004 7.275 29.08 L 0.512 29.08 C 0.375 29.08 0.244 29.135 0.148 29.233 C 0.052 29.33 -0.001 29.462 0 29.599 C 0.007 30.236 0.044 30.895 0.11 31.539 C 0.139 31.802 0.359 32 0.622 32 L 24.549 32 C 24.812 32 25.032 31.802 25.061 31.539 C 25.127 30.887 25.164 30.236 25.171 29.599 C 25.172 29.462 25.119 29.33 25.023 29.233 C 24.927 29.135 24.796 29.08 24.659 29.08 L 17.896 29.08 C 18.842 28.49 19.712 27.787 20.487 26.986 L 20.487 26.986 Z  M 27.733 21.951 C 27.73 23.524 26.932 24.99 25.612 25.847 C 24.291 26.703 22.628 26.835 21.189 26.196 C 21.438 25.896 21.68 25.588 21.907 25.259 C 22.287 25.391 22.683 25.464 23.085 25.464 C 24.708 25.465 26.12 24.355 26.503 22.778 C 26.885 21.201 26.138 19.568 24.695 18.825 C 24.776 18.445 24.849 18.064 24.915 17.676 C 26.598 18.393 27.733 20.077 27.733 21.951 L 27.733 21.951 Z  M 24.439 19.857 C 25.148 20.318 25.577 21.105 25.581 21.951 C 25.581 23.319 24.468 24.439 23.092 24.439 C 22.892 24.441 22.693 24.416 22.5 24.366 C 23.341 22.983 23.993 21.468 24.439 19.857 Z  M 24.073 30.968 L 1.083 30.968 C 1.061 30.675 1.039 30.39 1.032 30.097 L 24.124 30.097 C 24.117 30.39 24.102 30.675 24.073 30.968 Z  M 15.524 29.072 L 9.632 29.072 C 4.75 27.338 1.266 21.665 1.032 15.151 L 24.124 15.151 C 23.89 21.672 20.406 27.338 15.524 29.072 Z  M 3.696 16.849 L 2.694 17.061 C 3.008 18.532 4.084 22.324 7.224 25.661 L 7.971 24.959 C 4.926 21.724 3.93 17.932 3.696 16.849 L 3.696 16.849 Z  M 7.722 26.174 C 8.051 26.496 8.403 26.811 8.761 27.103 L 9.413 26.313 C 9.076 26.035 8.754 25.742 8.439 25.435 L 7.722 26.174 L 7.722 26.174 Z  M 6.631 13.138 L 7.063 12.209 C 7.041 12.201 5.116 11.294 4.78 9.727 C 4.597 8.864 4.933 7.927 5.782 6.939 C 5.848 6.858 6.609 5.987 7.019 4.736 C 7.414 3.513 7.546 1.698 5.899 0 L 5.16 0.71 C 7.627 3.257 5.124 6.134 5.014 6.258 L 5.006 6.265 C 3.93 7.51 3.513 8.747 3.769 9.94 C 4.223 12.004 6.536 13.094 6.631 13.138 Z  M 14.016 13.138 L 14.448 12.209 C 14.426 12.201 12.501 11.294 12.165 9.727 C 11.982 8.864 12.318 7.927 13.167 6.939 C 13.233 6.858 13.995 5.987 14.404 4.736 C 14.8 3.513 14.931 1.698 13.285 0 L 12.545 0.71 C 15.012 3.257 12.509 6.134 12.399 6.258 L 12.392 6.265 C 11.316 7.51 10.898 8.747 11.155 9.94 C 11.608 12.004 13.921 13.094 14.016 13.138 L 14.016 13.138 Z  M 21.372 13.138 L 21.804 12.209 C 21.782 12.201 19.857 11.294 19.521 9.727 C 19.338 8.864 19.674 7.927 20.523 6.939 C 20.589 6.858 21.35 5.987 21.76 4.736 C 22.156 3.513 22.287 1.698 20.64 0 L 19.901 0.71 C 22.368 3.257 19.865 6.134 19.755 6.258 L 19.748 6.265 C 18.672 7.51 18.254 8.747 18.511 9.94 C 18.964 12.004 21.27 13.094 21.372 13.138 L 21.372 13.138 Z " fill="rgb(255,218,0)"/></svg>