<?xml version="1.0" standalone="no"?><!-- Generator: Gravit.io --><svg xmlns="http://www.w3.org/2000/svg" xmlns:xlink="http://www.w3.org/1999/xlink" style="isolation:isolate" viewBox="0 0 32 29.867" width="32" height="29.867"><path d=" M 11.55 0 C 10.837 0 10.169 0.277 9.665 0.781 L 6.115 4.331 C 5.613 4.83 5.331 5.509 5.333 6.217 L 5.333 9.831 L 0.775 12.566 C 0.295 12.857 0.001 13.377 0 13.938 L 0 28.267 C 0 29.148 0.719 29.867 1.6 29.867 L 30.4 29.867 C 31.281 29.867 32 29.148 32 28.267 L 32 13.938 C 31.999 13.377 31.705 12.857 31.225 12.567 L 26.667 9.831 L 26.667 1.6 C 26.667 0.719 25.948 0 25.067 0 L 11.55 0 Z  M 11.733 1.067 L 25.067 1.067 C 25.36 1.067 25.6 1.307 25.6 1.6 L 25.6 14.4 C 25.6 14.695 25.839 14.933 26.133 14.933 C 26.428 14.933 26.667 14.695 26.667 14.4 L 26.667 11.075 L 30.675 13.481 C 30.835 13.578 30.933 13.751 30.933 13.938 L 30.933 14.588 L 16.654 20.989 C 16.238 21.175 15.762 21.175 15.346 20.989 L 1.067 14.588 L 1.067 13.937 C 1.067 13.752 1.165 13.575 1.325 13.481 L 5.333 11.075 L 5.333 14.4 C 5.333 14.695 5.572 14.933 5.867 14.933 C 6.161 14.933 6.4 14.695 6.4 14.4 L 6.4 6.4 L 10.133 6.4 C 11.014 6.4 11.733 5.681 11.733 4.8 L 11.733 1.067 Z  M 10.667 1.333 L 10.667 4.8 C 10.667 5.093 10.427 5.333 10.133 5.333 L 6.667 5.333 C 6.725 5.246 6.791 5.163 6.869 5.085 L 10.419 1.535 C 10.496 1.458 10.579 1.391 10.667 1.333 Z  M 15.467 6.4 C 13.408 6.4 11.733 8.075 11.733 10.133 L 11.733 13.333 C 11.733 15.392 13.408 17.067 15.467 17.067 L 18.667 17.067 C 18.961 17.067 19.2 16.828 19.2 16.533 C 19.2 16.239 18.961 16 18.667 16 L 15.467 16 C 13.996 16 12.8 14.804 12.8 13.333 L 12.8 10.133 C 12.8 8.662 13.996 7.467 15.467 7.467 L 16.533 7.467 C 18.004 7.467 19.2 8.662 19.2 10.133 L 19.2 13.333 C 19.2 13.627 18.96 13.867 18.667 13.867 C 18.373 13.867 18.133 13.627 18.133 13.333 L 18.133 10.667 C 18.133 9.49 17.177 8.533 16 8.533 C 14.823 8.533 13.867 9.49 13.867 10.667 L 13.867 12.8 C 13.867 13.977 14.823 14.933 16 14.933 C 16.56 14.933 17.067 14.713 17.448 14.358 C 17.749 14.721 18.195 14.932 18.667 14.933 C 19.548 14.933 20.267 14.214 20.267 13.333 L 20.267 10.133 C 20.267 8.075 18.592 6.4 16.533 6.4 L 15.467 6.4 Z  M 16 9.6 C 16.588 9.6 17.067 10.079 17.067 10.667 L 17.067 12.8 C 17.067 13.388 16.588 13.867 16 13.867 C 15.412 13.867 14.933 13.388 14.933 12.8 L 14.933 10.667 C 14.933 10.079 15.412 9.6 16 9.6 Z  M 1.067 15.758 L 14.908 21.963 C 15.604 22.27 16.396 22.27 17.092 21.963 L 30.933 15.758 L 30.933 28.267 C 30.933 28.56 30.693 28.8 30.4 28.8 L 1.6 28.8 C 1.307 28.8 1.067 28.56 1.067 28.267 L 1.067 15.758 Z  M 2.667 24.533 C 2.372 24.533 2.133 24.772 2.133 25.067 L 2.133 26.133 C 2.133 26.428 2.372 26.667 2.667 26.667 C 2.961 26.667 3.2 26.428 3.2 26.133 L 3.2 25.067 C 3.2 24.772 2.961 24.533 2.667 24.533 Z  M 5.333 24.533 C 5.039 24.533 4.8 24.772 4.8 25.067 L 4.8 26.133 C 4.8 26.428 5.039 26.667 5.333 26.667 C 5.628 26.667 5.867 26.428 5.867 26.133 L 5.867 25.067 C 5.867 24.772 5.628 24.533 5.333 24.533 Z  M 8 24.533 C 7.705 24.533 7.467 24.772 7.467 25.067 L 7.467 26.133 C 7.467 26.428 7.705 26.667 8 26.667 C 8.295 26.667 8.533 26.428 8.533 26.133 L 8.533 25.067 C 8.533 24.772 8.295 24.533 8 24.533 Z  M 10.667 24.533 C 10.372 24.533 10.133 24.772 10.133 25.067 L 10.133 26.133 C 10.133 26.428 10.372 26.667 10.667 26.667 C 10.961 26.667 11.2 26.428 11.2 26.133 L 11.2 25.067 C 11.2 24.772 10.961 24.533 10.667 24.533 Z  M 13.333 24.533 C 13.039 24.533 12.8 24.772 12.8 25.067 L 12.8 26.133 C 12.8 26.428 13.039 26.667 13.333 26.667 C 13.628 26.667 13.867 26.428 13.867 26.133 L 13.867 25.067 C 13.867 24.772 13.628 24.533 13.333 24.533 Z  M 16 24.533 C 15.705 24.533 15.467 24.772 15.467 25.067 L 15.467 26.133 C 15.467 26.428 15.705 26.667 16 26.667 C 16.295 26.667 16.533 26.428 16.533 26.133 L 16.533 25.067 C 16.533 24.772 16.295 24.533 16 24.533 Z  M 18.667 24.533 C 18.372 24.533 18.133 24.772 18.133 25.067 L 18.133 26.133 C 18.133 26.428 18.372 26.667 18.667 26.667 C 18.961 26.667 19.2 26.428 19.2 26.133 L 19.2 25.067 C 19.2 24.772 18.961 24.533 18.667 24.533 Z  M 21.333 24.533 C 21.039 24.533 20.8 24.772 20.8 25.067 L 20.8 26.133 C 20.8 26.428 21.039 26.667 21.333 26.667 C 21.628 26.667 21.867 26.428 21.867 26.133 L 21.867 25.067 C 21.867 24.772 21.628 24.533 21.333 24.533 Z  M 24 24.533 C 23.705 24.533 23.467 24.772 23.467 25.067 L 23.467 26.133 C 23.467 26.428 23.705 26.667 24 26.667 C 24.295 26.667 24.533 26.428 24.533 26.133 L 24.533 25.067 C 24.533 24.772 24.295 24.533 24 24.533 Z  M 26.667 24.533 C 26.372 24.533 26.133 24.772 26.133 25.067 L 26.133 26.133 C 26.133 26.428 26.372 26.667 26.667 26.667 C 26.961 26.667 27.2 26.428 27.2 26.133 L 27.2 25.067 C 27.2 24.772 26.961 24.533 26.667 24.533 Z  M 29.333 24.533 C 29.039 24.533 28.8 24.772 28.8 25.067 L 28.8 26.133 C 28.8 26.428 29.039 26.667 29.333 26.667 C 29.628 26.667 29.867 26.428 29.867 26.133 L 29.867 25.067 C 29.867 24.772 29.628 24.533 29.333 24.533 Z " fill="rgb(255,255,255)"/></svg>