<?xml version="1.0" standalone="no"?><!-- Generator: Gravit.io --><svg xmlns="http://www.w3.org/2000/svg" xmlns:xlink="http://www.w3.org/1999/xlink" style="isolation:isolate" viewBox="0 0 26.777 32" width="26.777" height="32"><path d=" M 6.709 0 C 6.574 0.007 6.444 0.053 6.335 0.132 C -0.362 4.795 -2.013 14.026 2.651 20.72 C 5.375 24.633 9.659 26.806 14.083 27.024 L 14.083 29.211 C 11.251 29.401 8.192 30.63 8.192 30.63 C 7.878 30.754 7.697 31.084 7.759 31.415 C 7.821 31.747 8.11 31.988 8.448 31.989 L 14.669 31.989 C 14.746 32.004 14.823 32.004 14.897 31.989 L 21.126 31.989 C 21.464 31.988 21.753 31.747 21.815 31.415 C 21.877 31.084 21.696 30.754 21.382 30.63 C 21.382 30.63 18.323 29.4 15.491 29.211 L 15.491 27.026 C 18.27 26.902 20.956 25.993 23.239 24.404 C 23.545 24.543 23.907 24.445 24.102 24.17 C 24.296 23.895 24.269 23.521 24.036 23.278 C 23.803 23.035 23.431 22.992 23.148 23.174 C 22.915 23.066 22.641 23.095 22.435 23.249 C 20.222 24.794 17.593 25.631 14.894 25.65 C 14.853 25.645 14.814 25.639 14.776 25.639 C 14.757 25.642 14.738 25.642 14.718 25.642 C 10.517 25.62 6.393 23.631 3.806 19.916 C -0.422 13.845 1.067 5.516 7.138 1.288 C 7.39 1.118 7.504 0.806 7.423 0.514 C 7.341 0.222 7.081 0.015 6.778 0 L 6.709 0 Z  M 14.787 0.294 C 12.294 0.294 9.978 1.062 8.061 2.369 C 8.022 2.393 7.98 2.416 7.942 2.441 C 7.829 2.52 7.725 2.608 7.623 2.699 C 4.709 4.884 2.813 8.353 2.813 12.268 C 2.813 12.516 2.835 12.758 2.849 13.001 C 2.783 13.19 2.797 13.399 2.891 13.578 C 3.336 17.675 5.859 21.15 9.383 22.94 C 9.521 23.119 9.738 23.227 9.967 23.221 C 11.485 23.894 13.127 24.242 14.787 24.242 C 17.299 24.242 19.629 23.463 21.556 22.137 C 21.58 22.12 21.605 22.107 21.63 22.09 C 21.732 22.019 21.831 21.943 21.927 21.862 C 24.854 19.678 26.761 16.197 26.761 12.268 C 26.761 12.026 26.739 11.792 26.725 11.552 C 26.808 11.348 26.791 11.117 26.681 10.926 C 26.221 6.834 23.695 3.37 20.174 1.588 C 20.038 1.419 19.834 1.321 19.618 1.321 C 18.097 0.645 16.451 0.295 14.787 0.294 Z  M 14.787 1.703 C 15.937 1.703 17.043 1.893 18.078 2.231 L 15.579 3.97 C 15.028 3.548 14.446 3.167 13.838 2.831 C 13.268 2.52 12.669 2.266 12.049 2.071 C 12.942 1.831 13.862 1.707 14.787 1.703 Z  M 19.648 2.892 C 20.964 3.574 22.113 4.52 23.033 5.665 L 19.569 8.078 C 18.677 6.881 17.72 5.819 16.73 4.925 L 19.648 2.892 Z  M 10.074 3.184 C 10.935 3.142 11.992 3.431 13.164 4.069 C 13.554 4.281 13.953 4.539 14.358 4.823 L 11.733 6.652 L 9.395 3.293 C 9.606 3.233 9.831 3.191 10.074 3.184 Z  M 8.242 4.108 L 10.577 7.459 L 7.956 9.283 C 7.831 8.829 7.732 8.367 7.658 7.902 C 7.413 6.209 7.647 4.906 8.242 4.108 Z  M 15.539 5.756 C 16.529 6.614 17.508 7.674 18.411 8.884 L 14.963 11.289 L 12.556 7.834 L 15.539 5.756 Z  M 6.173 6.157 C 6.14 6.809 6.171 7.463 6.266 8.108 C 6.362 8.761 6.522 9.439 6.731 10.136 L 4.245 11.869 C 4.314 9.817 4.985 7.831 6.173 6.157 Z  M 23.833 6.824 C 24.595 8.086 25.082 9.495 25.264 10.958 L 22.348 12.991 C 21.816 11.677 21.155 10.418 20.375 9.233 L 23.833 6.824 Z  M 11.399 8.639 L 13.807 12.092 L 10.36 14.494 C 9.534 13.226 8.882 11.941 8.417 10.716 L 11.399 8.639 Z  M 19.219 10.037 C 20.044 11.308 20.694 12.596 21.156 13.823 L 18.173 15.9 L 15.766 12.444 L 19.219 10.037 Z  M 7.226 11.544 C 7.718 12.782 8.384 14.051 9.198 15.303 L 5.74 17.713 C 4.978 16.449 4.491 15.039 4.309 13.575 L 7.226 11.544 Z  M 25.329 12.667 C 25.259 14.721 24.587 16.709 23.395 18.385 C 23.431 17.76 23.403 17.105 23.304 16.425 C 23.201 15.739 23.046 15.063 22.842 14.4 L 25.329 12.667 Z  M 14.61 13.248 L 17.018 16.703 L 14.038 18.781 C 13.045 17.919 12.065 16.865 11.16 15.652 L 14.61 13.248 Z  M 21.618 15.253 C 21.744 15.726 21.846 16.191 21.909 16.629 C 22.157 18.324 21.923 19.625 21.326 20.423 L 18.996 17.077 L 21.618 15.253 Z  M 10.002 16.459 C 10.893 17.658 11.853 18.718 12.847 19.609 L 9.924 21.645 C 8.616 20.966 7.463 20.021 6.541 18.872 L 10.002 16.459 Z  M 17.84 17.884 L 20.171 21.23 C 19.213 21.513 17.909 21.282 16.407 20.465 C 15.997 20.236 15.6 19.984 15.218 19.711 L 17.84 17.884 Z  M 13.994 20.564 C 14.571 21.001 15.155 21.384 15.733 21.701 C 16.332 22.027 16.937 22.281 17.529 22.463 C 16.635 22.705 15.713 22.83 14.787 22.833 C 13.637 22.833 12.531 22.643 11.494 22.305 L 13.994 20.564 Z " fill="rgb(255,255,255)"/></svg>