<?xml version="1.0" standalone="no"?><!-- Generator: Gravit.io --><svg xmlns="http://www.w3.org/2000/svg" xmlns:xlink="http://www.w3.org/1999/xlink" style="isolation:isolate" viewBox="0 0 32 27.536" width="32" height="27.536"><path d=" M 8.571 0 C 3.843 0 0 3.888 0 8.571 C 0 10.206 0.741 11.621 1.429 12.643 C 1.834 13.249 2.301 13.811 2.822 14.321 L 15.177 26.714 L 15.999 27.536 L 16.821 26.714 L 29.177 14.321 C 29.177 14.321 32 11.834 32 8.571 C 32 3.888 28.157 0 23.429 0 C 19.504 0 16.977 2.361 16 3.358 C 15.023 2.361 12.496 0 8.571 0 Z  M 8.571 2.286 C 11.986 2.286 15.143 5.607 15.143 5.607 L 16 6.571 L 16.857 5.607 C 16.857 5.607 20.014 2.286 23.429 2.286 C 26.906 2.286 29.714 5.138 29.714 8.571 C 29.714 10.335 27.571 12.714 27.571 12.714 L 16 24.286 L 4.429 12.714 C 4.429 12.714 3.875 12.183 3.321 11.357 C 2.768 10.533 2.286 9.456 2.286 8.571 C 2.286 5.138 5.094 2.286 8.571 2.286 Z " fill="rgb(255,218,0)"/></svg>