<?xml version="1.0" standalone="no"?><!-- Generator: Gravit.io --><svg xmlns="http://www.w3.org/2000/svg" xmlns:xlink="http://www.w3.org/1999/xlink" style="isolation:isolate" viewBox="0 0 32 22.851" width="32" height="22.851"><path d=" M 5.51 18.908 C 5.189 18.908 4.924 18.651 4.908 18.329 L 3.044 18.329 C 3.036 18.651 2.771 18.908 2.442 18.908 C 2.112 18.908 1.839 18.643 1.839 18.305 L 1.839 17.727 C 1.839 17.398 2.104 17.124 2.442 17.124 L 5.51 17.124 C 5.839 17.124 6.112 17.39 6.112 17.727 L 6.112 18.305 C 6.104 18.643 5.839 18.908 5.51 18.908 Z  M 8.819 18.908 C 8.498 18.908 8.233 18.651 8.217 18.329 L 8 18.329 C 7.992 18.651 7.727 18.908 7.398 18.908 C 7.068 18.908 6.795 18.643 6.795 18.305 L 6.795 17.727 C 6.795 17.398 7.06 17.124 7.398 17.124 L 8.811 17.124 C 9.141 17.124 9.414 17.39 9.414 17.727 L 9.414 18.305 C 9.422 18.643 9.149 18.908 8.819 18.908 Z  M 11.647 18.908 C 11.325 18.908 11.06 18.651 11.044 18.329 L 10.843 18.329 C 10.835 18.651 10.57 18.908 10.241 18.908 C 9.912 18.908 9.639 18.643 9.639 18.305 L 9.639 17.727 C 9.639 17.398 9.904 17.124 10.241 17.124 L 11.639 17.124 C 11.968 17.124 12.241 17.39 12.241 17.727 L 12.241 18.305 C 12.241 18.643 11.976 18.908 11.647 18.908 Z  M 14.482 18.908 C 14.161 18.908 13.896 18.651 13.879 18.329 L 13.679 18.329 C 13.671 18.651 13.406 18.908 13.076 18.908 C 12.747 18.908 12.474 18.643 12.474 18.305 L 12.474 17.727 C 12.474 17.398 12.739 17.124 13.076 17.124 L 14.474 17.124 C 14.803 17.124 15.076 17.39 15.076 17.727 L 15.076 18.305 C 15.084 18.643 14.811 18.908 14.482 18.908 Z  M 17.325 18.908 C 17.004 18.908 16.739 18.651 16.723 18.329 L 16.522 18.329 C 16.514 18.651 16.249 18.908 15.92 18.908 C 15.59 18.908 15.317 18.643 15.317 18.305 L 15.317 17.727 C 15.317 17.398 15.582 17.124 15.92 17.124 L 17.317 17.124 C 17.647 17.124 17.92 17.39 17.92 17.727 L 17.92 18.305 C 17.92 18.643 17.655 18.908 17.325 18.908 L 17.325 18.908 Z  M 20.161 18.908 C 19.839 18.908 19.574 18.651 19.566 18.329 L 19.365 18.329 C 19.357 18.651 19.092 18.908 18.763 18.908 C 18.434 18.908 18.161 18.643 18.161 18.305 L 18.161 17.727 C 18.161 17.398 18.426 17.124 18.763 17.124 L 20.161 17.124 C 20.49 17.124 20.763 17.39 20.763 17.727 L 20.763 18.305 C 20.763 18.643 20.49 18.908 20.161 18.908 Z  M 22.996 18.908 C 22.675 18.908 22.41 18.651 22.394 18.329 L 22.193 18.329 C 22.185 18.651 21.92 18.908 21.59 18.908 C 21.261 18.908 20.988 18.643 20.988 18.305 L 20.988 17.727 C 20.988 17.398 21.253 17.124 21.59 17.124 L 22.988 17.124 C 23.317 17.124 23.59 17.39 23.59 17.727 L 23.59 18.305 C 23.598 18.643 23.333 18.908 22.996 18.908 Z  M 25.839 18.908 C 25.518 18.908 25.253 18.651 25.237 18.329 L 25.036 18.329 C 25.028 18.651 24.763 18.908 24.434 18.908 C 24.104 18.908 23.831 18.643 23.831 18.305 L 23.831 17.727 C 23.831 17.398 24.096 17.124 24.434 17.124 L 25.831 17.124 C 26.161 17.124 26.434 17.39 26.434 17.727 L 26.434 18.305 C 26.434 18.643 26.169 18.908 25.839 18.908 L 25.839 18.908 Z  M 29.381 18.908 C 29.06 18.908 28.795 18.651 28.779 18.329 L 27.871 18.329 C 27.863 18.651 27.598 18.908 27.269 18.908 C 26.94 18.908 26.667 18.643 26.667 18.305 L 26.667 17.727 C 26.667 17.398 26.932 17.124 27.269 17.124 L 29.373 17.124 C 29.703 17.124 29.976 17.39 29.976 17.727 L 29.976 18.305 C 29.984 18.643 29.711 18.908 29.381 18.908 Z  M 22.024 21.406 C 21.703 21.406 21.438 21.149 21.422 20.827 L 11.711 20.827 C 11.703 21.149 11.438 21.406 11.108 21.406 C 10.779 21.406 10.506 21.141 10.506 20.803 L 10.506 20.225 C 10.506 19.896 10.771 19.622 11.108 19.622 L 22.016 19.622 C 22.345 19.622 22.618 19.888 22.618 20.225 L 22.618 20.803 C 22.626 21.141 22.353 21.406 22.024 21.406 Z  M 9.51 21.406 C 9.189 21.406 8.924 21.149 8.908 20.827 L 8.707 20.827 C 8.699 21.149 8.434 21.406 8.104 21.406 C 7.775 21.406 7.502 21.141 7.502 20.803 L 7.502 20.225 C 7.502 19.896 7.767 19.622 8.104 19.622 L 9.502 19.622 C 9.831 19.622 10.104 19.888 10.104 20.225 L 10.104 20.803 C 10.112 21.141 9.847 21.406 9.51 21.406 Z  M 25.173 21.406 C 24.851 21.406 24.586 21.149 24.57 20.827 L 24.369 20.827 C 24.361 21.149 24.096 21.406 23.767 21.406 C 23.438 21.406 23.165 21.141 23.165 20.803 L 23.165 20.225 C 23.165 19.896 23.43 19.622 23.767 19.622 L 25.165 19.622 C 25.494 19.622 25.767 19.888 25.767 20.225 L 25.767 20.803 C 25.775 21.141 25.502 21.406 25.173 21.406 Z  M 29.381 21.406 C 29.06 21.406 28.795 21.149 28.779 20.827 L 27.414 20.827 C 27.406 21.149 27.141 21.406 26.811 21.406 C 26.482 21.406 26.209 21.141 26.209 20.803 L 26.209 20.225 C 26.209 19.896 26.474 19.622 26.811 19.622 L 29.373 19.622 C 29.703 19.622 29.976 19.888 29.976 20.225 L 29.976 20.803 C 29.984 21.141 29.711 21.406 29.381 21.406 Z  M 6.683 21.406 C 6.361 21.406 6.096 21.149 6.08 20.827 L 5.88 20.827 C 5.871 21.149 5.606 21.406 5.277 21.406 C 4.948 21.406 4.675 21.141 4.675 20.803 L 4.675 20.225 C 4.675 19.896 4.94 19.622 5.277 19.622 L 6.675 19.622 C 7.004 19.622 7.277 19.888 7.277 20.225 L 7.277 20.803 C 7.277 21.141 7.012 21.406 6.683 21.406 Z  M 3.847 21.406 C 3.526 21.406 3.261 21.149 3.245 20.827 L 3.044 20.827 C 3.036 21.149 2.771 21.406 2.442 21.406 C 2.112 21.406 1.839 21.141 1.839 20.803 L 1.839 20.225 C 1.839 19.896 2.104 19.622 2.442 19.622 L 3.839 19.622 C 4.169 19.622 4.442 19.888 4.442 20.225 L 4.442 20.803 C 4.442 21.141 4.177 21.406 3.847 21.406 Z  M 6.755 16.41 C 6.434 16.41 6.169 16.153 6.153 15.831 L 5.952 15.831 C 5.944 16.153 5.679 16.41 5.349 16.41 C 5.02 16.41 4.747 16.145 4.747 15.807 L 4.747 15.229 C 4.747 14.9 5.012 14.626 5.349 14.626 L 6.747 14.626 C 7.076 14.626 7.349 14.892 7.349 15.229 L 7.349 15.807 C 7.349 16.137 7.084 16.41 6.755 16.41 L 6.755 16.41 Z  M 9.655 16.41 C 9.333 16.41 9.068 16.153 9.052 15.831 L 8.851 15.831 C 8.843 16.153 8.578 16.41 8.249 16.41 C 7.92 16.41 7.647 16.145 7.647 15.807 L 7.647 15.229 C 7.647 14.9 7.912 14.626 8.249 14.626 L 9.647 14.626 C 9.976 14.626 10.249 14.892 10.249 15.229 L 10.249 15.807 C 10.257 16.137 9.992 16.41 9.655 16.41 L 9.655 16.41 Z  M 12.562 16.41 C 12.241 16.41 11.976 16.153 11.96 15.831 L 11.759 15.831 C 11.751 16.153 11.486 16.41 11.157 16.41 C 10.827 16.41 10.554 16.145 10.554 15.807 L 10.554 15.229 C 10.554 14.9 10.819 14.626 11.157 14.626 L 12.554 14.626 C 12.884 14.626 13.157 14.892 13.157 15.229 L 13.157 15.807 C 13.165 16.137 12.9 16.41 12.562 16.41 L 12.562 16.41 Z  M 15.47 16.41 C 15.149 16.41 14.884 16.153 14.867 15.831 L 14.667 15.831 C 14.659 16.153 14.394 16.41 14.064 16.41 C 13.735 16.41 13.462 16.145 13.462 15.807 L 13.462 15.229 C 13.462 14.9 13.727 14.626 14.064 14.626 L 15.47 14.626 C 15.799 14.626 16.072 14.892 16.072 15.229 L 16.072 15.807 C 16.072 16.137 15.807 16.41 15.47 16.41 L 15.47 16.41 Z  M 18.377 16.41 C 18.056 16.41 17.791 16.153 17.775 15.831 L 17.574 15.831 C 17.566 16.153 17.301 16.41 16.972 16.41 C 16.643 16.41 16.369 16.145 16.369 15.807 L 16.369 15.229 C 16.369 14.9 16.635 14.626 16.972 14.626 L 18.369 14.626 C 18.699 14.626 18.972 14.892 18.972 15.229 L 18.972 15.807 C 18.98 16.137 18.715 16.41 18.377 16.41 L 18.377 16.41 Z  M 21.285 16.41 C 20.964 16.41 20.699 16.153 20.683 15.831 L 20.482 15.831 C 20.474 16.153 20.209 16.41 19.879 16.41 C 19.55 16.41 19.277 16.145 19.277 15.807 L 19.277 15.229 C 19.277 14.9 19.542 14.626 19.879 14.626 L 21.277 14.626 C 21.606 14.626 21.879 14.892 21.879 15.229 L 21.879 15.807 C 21.882 15.966 21.82 16.119 21.708 16.233 C 21.597 16.346 21.444 16.41 21.285 16.41 L 21.285 16.41 Z  M 24.193 16.41 C 23.871 16.41 23.606 16.153 23.59 15.831 L 23.39 15.831 C 23.381 16.153 23.116 16.41 22.787 16.41 C 22.458 16.41 22.185 16.145 22.185 15.807 L 22.185 15.229 C 22.185 14.9 22.45 14.626 22.787 14.626 L 24.185 14.626 C 24.514 14.626 24.787 14.892 24.787 15.229 L 24.787 15.807 C 24.789 15.966 24.728 16.119 24.616 16.233 C 24.504 16.346 24.352 16.41 24.193 16.41 L 24.193 16.41 Z  M 29.381 16.41 C 29.06 16.41 28.795 16.153 28.779 15.831 L 26.12 15.831 C 26.112 16.153 25.847 16.41 25.518 16.41 C 25.189 16.41 24.916 16.145 24.916 15.807 L 24.916 15.229 C 24.916 14.9 25.181 14.626 25.518 14.626 L 29.373 14.626 C 29.703 14.626 29.976 14.892 29.976 15.229 L 29.976 15.807 C 29.978 15.966 29.916 16.119 29.805 16.233 C 29.693 16.346 29.541 16.41 29.381 16.41 L 29.381 16.41 Z  M 3.847 16.41 C 3.526 16.41 3.261 16.153 3.245 15.831 L 3.044 15.831 C 3.036 16.153 2.771 16.41 2.442 16.41 C 2.112 16.41 1.839 16.145 1.839 15.807 L 1.839 15.229 C 1.839 14.9 2.104 14.626 2.442 14.626 L 3.839 14.626 C 4.169 14.626 4.442 14.892 4.442 15.229 L 4.442 15.807 C 4.442 16.137 4.177 16.41 3.847 16.41 L 3.847 16.41 Z  M 6.225 13.904 C 5.912 13.904 5.655 13.663 5.631 13.357 C 5.598 13.663 5.349 13.904 5.036 13.904 C 4.707 13.904 4.434 13.639 4.434 13.301 L 4.434 12.723 C 4.434 12.394 4.699 12.12 5.036 12.12 L 6.225 12.12 C 6.554 12.12 6.827 12.386 6.827 12.723 L 6.827 13.301 C 6.827 13.639 6.554 13.904 6.225 13.904 Z  M 8.811 13.904 C 8.498 13.904 8.241 13.663 8.217 13.357 C 8.185 13.663 7.936 13.904 7.622 13.904 C 7.293 13.904 7.02 13.639 7.02 13.301 L 7.02 12.723 C 7.02 12.394 7.285 12.12 7.622 12.12 L 8.811 12.12 C 9.141 12.12 9.414 12.386 9.414 12.723 L 9.414 13.301 C 9.414 13.639 9.149 13.904 8.811 13.904 Z  M 11.406 13.904 C 11.092 13.904 10.835 13.663 10.811 13.357 C 10.787 13.663 10.53 13.904 10.217 13.904 C 9.888 13.904 9.614 13.639 9.614 13.301 L 9.614 12.723 C 9.614 12.394 9.88 12.12 10.217 12.12 L 11.406 12.12 C 11.735 12.12 12.008 12.386 12.008 12.723 L 12.008 13.301 C 12 13.639 11.735 13.904 11.406 13.904 Z  M 13.992 13.904 C 13.679 13.904 13.422 13.663 13.398 13.357 C 13.365 13.663 13.116 13.904 12.803 13.904 C 12.474 13.904 12.201 13.639 12.201 13.301 L 12.201 12.723 C 12.201 12.394 12.466 12.12 12.803 12.12 L 13.992 12.12 C 14.321 12.12 14.594 12.386 14.594 12.723 L 14.594 13.301 C 14.594 13.639 14.321 13.904 13.992 13.904 L 13.992 13.904 Z  M 16.578 13.904 C 16.265 13.904 16.008 13.663 15.984 13.357 C 15.952 13.663 15.703 13.904 15.39 13.904 C 15.06 13.904 14.787 13.639 14.787 13.301 L 14.787 12.723 C 14.787 12.394 15.052 12.12 15.39 12.12 L 16.578 12.12 C 16.908 12.12 17.181 12.386 17.181 12.723 L 17.181 13.301 C 17.181 13.639 16.908 13.904 16.578 13.904 L 16.578 13.904 Z  M 19.165 13.904 C 18.851 13.904 18.594 13.663 18.57 13.357 C 18.538 13.663 18.289 13.904 17.976 13.904 C 17.647 13.904 17.373 13.639 17.373 13.301 L 17.373 12.723 C 17.373 12.394 17.639 12.12 17.976 12.12 L 19.165 12.12 C 19.494 12.12 19.767 12.386 19.767 12.723 L 19.767 13.301 C 19.767 13.639 19.502 13.904 19.165 13.904 L 19.165 13.904 Z  M 21.759 13.904 C 21.446 13.904 21.189 13.663 21.165 13.357 C 21.132 13.663 20.883 13.904 20.57 13.904 C 20.241 13.904 19.968 13.639 19.968 13.301 L 19.968 12.723 C 19.968 12.394 20.233 12.12 20.57 12.12 L 21.759 12.12 C 22.088 12.12 22.361 12.386 22.361 12.723 L 22.361 13.301 C 22.353 13.639 22.088 13.904 21.759 13.904 L 21.759 13.904 Z  M 24.345 13.904 C 24.032 13.904 23.775 13.663 23.751 13.357 C 23.719 13.663 23.47 13.904 23.157 13.904 C 22.827 13.904 22.554 13.639 22.554 13.301 L 22.554 12.723 C 22.554 12.394 22.819 12.12 23.157 12.12 L 24.345 12.12 C 24.675 12.12 24.948 12.386 24.948 12.723 L 24.948 13.301 C 24.948 13.639 24.675 13.904 24.345 13.904 L 24.345 13.904 Z  M 26.932 13.904 C 26.618 13.904 26.361 13.663 26.337 13.357 C 26.305 13.663 26.056 13.904 25.743 13.904 C 25.414 13.904 25.141 13.639 25.141 13.301 L 25.141 12.723 C 25.141 12.394 25.406 12.12 25.743 12.12 L 26.932 12.12 C 27.261 12.12 27.534 12.386 27.534 12.723 L 27.534 13.301 C 27.534 13.639 27.261 13.904 26.932 13.904 L 26.932 13.904 Z  M 29.526 13.904 C 29.213 13.904 28.956 13.663 28.932 13.357 C 28.9 13.663 28.651 13.904 28.337 13.904 C 28.008 13.904 27.735 13.639 27.735 13.301 L 27.735 12.723 C 27.735 12.394 28 12.12 28.337 12.12 L 29.526 12.12 C 29.855 12.12 30.128 12.386 30.128 12.723 L 30.128 13.301 C 30.12 13.639 29.855 13.904 29.526 13.904 L 29.526 13.904 Z  M 3.639 13.904 C 3.325 13.904 3.068 13.663 3.044 13.357 C 3.02 13.663 2.763 13.904 2.45 13.904 C 2.12 13.904 1.847 13.639 1.847 13.301 L 1.847 12.723 C 1.847 12.394 2.112 12.12 2.45 12.12 L 3.639 12.12 C 3.968 12.12 4.241 12.386 4.241 12.723 L 4.241 13.301 C 4.241 13.639 3.968 13.904 3.639 13.904 Z  M 30.136 22.851 L 1.863 22.851 C 0.835 22.851 0 22.016 0 20.988 L 0 11.229 C 0 10.201 0.835 9.365 1.863 9.365 L 13.799 9.365 C 14.132 9.365 14.402 9.635 14.402 9.968 C 14.402 10.301 14.132 10.57 13.799 10.57 L 1.863 10.57 C 1.494 10.57 1.197 10.867 1.197 11.237 L 1.197 20.996 C 1.197 21.365 1.494 21.663 1.863 21.663 L 30.136 21.663 C 30.506 21.663 30.803 21.365 30.803 20.996 L 30.803 11.229 C 30.803 10.859 30.506 10.562 30.136 10.562 L 16.916 10.562 C 16.08 10.562 15.406 9.888 15.406 9.052 L 15.406 7.679 C 15.406 6.948 16 6.353 16.731 6.353 L 21.574 6.353 C 21.655 6.353 21.719 6.289 21.719 6.209 L 21.719 5.486 C 21.719 5.406 21.655 5.341 21.574 5.341 L 8.98 5.341 C 8.241 5.341 7.639 4.739 7.639 4 L 7.639 3.695 C 7.639 2.956 8.241 2.353 8.98 2.353 L 9.647 2.353 C 9.976 2.353 10.249 2.618 10.249 2.956 C 10.249 3.293 9.984 3.558 9.647 3.558 L 8.98 3.558 C 8.9 3.558 8.835 3.622 8.835 3.703 L 8.835 4.008 C 8.835 4.088 8.9 4.153 8.98 4.153 L 21.574 4.153 C 22.313 4.153 22.916 4.755 22.916 5.494 L 22.916 6.217 C 22.916 6.956 22.313 7.558 21.574 7.558 L 16.731 7.558 C 16.659 7.558 16.602 7.614 16.602 7.687 L 16.602 9.044 C 16.602 9.221 16.747 9.357 16.916 9.357 L 30.136 9.357 C 31.165 9.357 32 10.193 32 11.221 L 32 20.98 C 32.008 22.016 31.165 22.851 30.136 22.851 L 30.136 22.851 Z  M 15.984 0 C 15.655 0 15.381 0.265 15.381 0.602 L 15.381 1.976 C 15.381 2.185 15.213 2.353 15.004 2.353 L 12.602 2.353 C 12.377 2.353 12.177 2.482 12.08 2.675 C 11.976 2.49 11.783 2.353 11.558 2.353 L 11.181 2.353 C 10.851 2.353 10.578 2.618 10.578 2.956 C 10.578 3.293 10.843 3.558 11.181 3.558 L 11.558 3.558 C 11.783 3.558 11.984 3.43 12.08 3.237 C 12.185 3.422 12.377 3.558 12.602 3.558 L 15.004 3.558 C 15.871 3.558 16.578 2.851 16.578 1.984 L 16.578 0.61 C 16.586 0.265 16.313 0 15.984 0 L 15.984 0 Z " fill="rgb(0,0,0)"/></svg>