<?xml version="1.0" standalone="no"?><!-- Generator: Gravit.io --><svg xmlns="http://www.w3.org/2000/svg" xmlns:xlink="http://www.w3.org/1999/xlink" style="isolation:isolate" viewBox="0 0 32 22.041" width="32" height="22.041"><path d=" M 2.618 19.801 C 2.42 19.8 2.235 19.706 2.118 19.547 C 2.001 19.389 1.965 19.184 2.022 18.995 L 3.281 14.775 L 2.542 14.775 C 1.141 14.775 0 13.634 0 12.233 L 0 2.542 C 0 1.141 1.141 0 2.542 0 L 21.185 0 C 22.586 0 23.727 1.141 23.727 2.542 L 23.727 4.539 C 23.727 4.887 23.446 5.168 23.098 5.168 C 22.751 5.168 22.469 4.887 22.469 4.539 L 22.469 2.542 C 22.469 1.829 21.89 1.25 21.177 1.25 L 2.534 1.25 C 1.821 1.25 1.242 1.829 1.242 2.542 L 1.242 12.233 C 1.242 12.946 1.821 13.525 2.534 13.525 L 4.111 13.525 C 4.313 13.525 4.497 13.617 4.615 13.777 C 4.732 13.936 4.766 14.137 4.715 14.33 L 3.767 17.502 L 8.793 13.651 C 8.902 13.567 9.036 13.525 9.17 13.525 L 11.293 13.525 C 11.641 13.525 11.922 13.807 11.922 14.154 C 11.922 14.502 11.641 14.783 11.293 14.783 L 9.38 14.783 L 2.995 19.675 C 2.886 19.759 2.752 19.801 2.618 19.801 L 2.618 19.801 Z  M 30.473 22.041 C 30.339 22.041 30.205 21.999 30.095 21.915 L 24.994 18.014 L 14.851 18.014 C 13.65 18.014 12.678 17.041 12.678 15.841 L 12.678 8.055 C 12.678 6.855 13.651 5.89 14.851 5.89 L 29.835 5.89 C 31.027 5.89 32 6.863 32 8.055 L 32 15.841 C 32 16.94 31.169 17.854 30.104 17.997 L 31.077 21.244 C 31.153 21.504 31.06 21.781 30.834 21.94 C 30.725 22.007 30.599 22.041 30.473 22.041 L 30.473 22.041 Z  M 14.851 7.14 C 14.347 7.14 13.936 7.551 13.936 8.055 L 13.936 15.841 C 13.936 16.344 14.347 16.755 14.851 16.755 L 25.212 16.755 C 25.347 16.755 25.481 16.797 25.59 16.881 L 29.324 19.742 L 28.669 17.561 C 28.61 17.368 28.652 17.166 28.77 17.007 C 28.887 16.847 29.072 16.755 29.273 16.755 L 29.835 16.755 C 30.339 16.755 30.75 16.344 30.75 15.841 L 30.75 8.055 C 30.75 7.551 30.339 7.14 29.835 7.14 L 14.851 7.14 Z  M 18.249 11.906 C 18.249 12.375 17.863 12.761 17.393 12.761 C 16.923 12.761 16.537 12.375 16.537 11.906 C 16.537 11.436 16.923 11.05 17.393 11.05 C 17.863 11.05 18.249 11.436 18.249 11.906 Z  M 21.546 11.906 C 21.546 12.375 21.16 12.761 20.69 12.761 C 20.22 12.761 19.834 12.375 19.834 11.906 C 19.834 11.436 20.22 11.05 20.69 11.05 C 21.16 11.05 21.546 11.436 21.546 11.906 Z  M 24.843 11.906 C 24.843 12.375 24.457 12.761 23.987 12.761 C 23.518 12.761 23.132 12.375 23.132 11.906 C 23.132 11.436 23.518 11.05 23.987 11.05 C 24.457 11.05 24.843 11.436 24.843 11.906 Z  M 28.141 11.906 C 28.141 12.375 27.755 12.761 27.285 12.761 C 26.815 12.761 26.429 12.375 26.429 11.906 C 26.429 11.436 26.815 11.05 27.285 11.05 C 27.755 11.05 28.141 11.436 28.141 11.906 Z " fill="rgb(255,255,255)"/></svg>