<?xml version="1.0" standalone="no"?><!-- Generator: Gravit.io --><svg xmlns="http://www.w3.org/2000/svg" xmlns:xlink="http://www.w3.org/1999/xlink" style="isolation:isolate" viewBox="0 0 32 31.997" width="32" height="31.997"><path d=" M 28.661 0 C 27.775 -0.003 26.925 0.347 26.3 0.975 L 24.665 2.61 C 24.208 2.303 23.67 2.14 23.119 2.142 C 22.837 2.142 22.563 2.195 22.301 2.278 C 20.767 1.318 18.792 1.519 17.493 2.821 L 10.368 9.944 C 10.158 10.155 10.158 10.496 10.368 10.707 C 10.58 10.916 10.921 10.916 11.133 10.707 L 18.254 3.581 C 19.032 2.805 20.189 2.579 21.188 2.929 C 21.177 2.938 21.166 2.945 21.158 2.955 L 4.839 19.272 C 3.798 20.315 3.013 21.585 2.545 22.982 L 1.059 27.444 C 0.926 27.844 0.951 28.28 1.129 28.662 L 0.044 31.218 C -0.045 31.428 0.003 31.671 0.165 31.832 C 0.326 31.995 0.569 32.042 0.779 31.953 L 3.337 30.868 C 3.554 30.969 3.788 31.026 4.024 31.026 C 4.201 31.026 4.38 30.997 4.553 30.938 L 9.015 29.451 C 10.413 28.984 11.683 28.199 12.726 27.158 L 29.042 10.84 C 29.565 10.322 29.859 9.615 29.857 8.879 C 29.857 8.319 29.691 7.785 29.387 7.333 L 31.02 5.698 C 31.65 5.073 32.002 4.223 32 3.336 C 32 2.444 31.652 1.606 31.023 0.975 C 30.397 0.348 29.547 -0.003 28.661 0 Z  M 28.661 1.075 C 29.261 1.074 29.837 1.313 30.259 1.74 C 30.684 2.162 30.922 2.737 30.92 3.336 C 30.92 3.939 30.686 4.506 30.259 4.934 L 28.661 6.531 L 25.467 3.336 L 27.063 1.74 C 27.486 1.314 28.061 1.074 28.661 1.075 L 28.661 1.075 Z  M 23.119 3.219 C 23.573 3.219 24 3.398 24.321 3.717 L 28.278 7.676 C 28.6 7.998 28.777 8.422 28.777 8.876 C 28.777 9.331 28.6 9.758 28.279 10.079 L 24.702 13.656 L 18.341 7.296 L 21.918 3.717 C 22.236 3.398 22.668 3.219 23.119 3.219 Z  M 22.283 5.197 C 22.141 5.197 21.997 5.251 21.887 5.359 L 21.096 6.152 C 20.991 6.257 20.932 6.399 20.932 6.547 C 20.932 6.695 20.991 6.837 21.096 6.941 C 21.205 7.051 21.348 7.105 21.491 7.105 C 21.64 7.106 21.782 7.047 21.887 6.941 L 22.679 6.152 C 22.897 5.933 22.897 5.578 22.679 5.358 C 22.574 5.253 22.431 5.195 22.283 5.197 Z  M 24.262 7.175 C 24.114 7.175 23.973 7.234 23.869 7.339 L 23.075 8.129 C 22.856 8.348 22.856 8.703 23.075 8.922 C 23.296 9.137 23.647 9.137 23.868 8.922 L 24.657 8.129 C 24.763 8.025 24.823 7.882 24.823 7.734 C 24.823 7.586 24.763 7.443 24.657 7.339 C 24.554 7.232 24.411 7.173 24.262 7.175 Z  M 17.58 8.057 L 23.94 14.417 L 12.446 25.909 L 6.086 19.549 L 17.58 8.057 Z  M 26.241 9.154 C 26.092 9.154 25.95 9.213 25.845 9.319 L 25.056 10.11 C 24.95 10.214 24.89 10.357 24.89 10.506 C 24.89 10.655 24.95 10.797 25.056 10.902 C 25.16 11.007 25.303 11.066 25.452 11.066 C 25.599 11.066 25.741 11.007 25.845 10.902 L 26.639 10.11 C 26.799 9.95 26.847 9.708 26.76 9.499 C 26.672 9.29 26.468 9.154 26.241 9.155 L 26.241 9.154 Z  M 17.466 9.923 C 17.323 9.922 17.185 9.978 17.084 10.079 L 15.404 11.758 C 15.25 11.913 15.204 12.145 15.288 12.346 C 15.372 12.547 15.569 12.678 15.787 12.678 C 15.925 12.678 16.063 12.627 16.17 12.52 L 17.849 10.84 C 18.003 10.686 18.048 10.455 17.964 10.254 C 17.88 10.053 17.684 9.922 17.466 9.923 Z  M 14.108 13.281 C 13.965 13.28 13.827 13.337 13.725 13.438 L 8.536 18.626 C 8.435 18.728 8.378 18.865 8.378 19.008 C 8.378 19.151 8.435 19.289 8.536 19.39 C 8.638 19.492 8.775 19.549 8.919 19.549 C 9.061 19.548 9.197 19.492 9.298 19.392 L 14.491 14.201 C 14.7 13.99 14.7 13.649 14.491 13.438 C 14.389 13.338 14.251 13.281 14.108 13.281 Z  M 5.312 20.358 L 11.639 26.686 C 10.78 27.457 9.77 28.063 8.675 28.428 L 4.212 29.915 C 4.131 29.941 4.046 29.948 3.963 29.935 C 3.937 29.889 3.905 29.846 3.869 29.808 L 2.189 28.129 C 2.151 28.092 2.108 28.06 2.061 28.035 C 2.05 27.951 2.057 27.866 2.082 27.785 L 3.569 23.323 C 3.934 22.227 4.54 21.217 5.312 20.358 L 5.312 20.358 Z " fill="rgb(0,0,0)"/></svg>