<?xml version="1.0" standalone="no"?><!-- Generator: Gravit.io --><svg xmlns="http://www.w3.org/2000/svg" xmlns:xlink="http://www.w3.org/1999/xlink" style="isolation:isolate" viewBox="0 0 19.816 32" width="19.816" height="32"><path d=" M 16.442 0 L 3.374 0 C 1.517 0 0 1.509 0 3.374 L 0 28.626 C 0 30.483 1.509 32 3.374 32 L 16.442 32 C 18.299 32 19.816 30.491 19.816 28.626 L 19.816 3.366 C 19.816 1.509 18.307 0 16.442 0 L 16.442 0 Z  M 18.568 28.618 C 18.568 29.788 17.612 30.744 16.442 30.744 L 3.374 30.744 C 2.204 30.744 1.248 29.788 1.248 28.618 L 1.248 3.366 C 1.248 2.197 2.204 1.24 3.374 1.24 L 16.442 1.24 C 17.612 1.24 18.568 2.197 18.568 3.366 L 18.568 28.618 L 18.568 28.618 Z  M 2.536 24.952 L 17.288 24.952 L 17.288 4.377 L 2.536 4.377 L 2.536 24.952 Z  M 3.16 5.001 L 16.672 5.001 L 16.672 24.328 L 3.16 24.328 L 3.16 5.001 L 3.16 5.001 Z  M 9.908 26.145 C 8.944 26.145 8.162 26.928 8.162 27.892 C 8.162 28.857 8.944 29.639 9.909 29.638 C 10.874 29.638 11.655 28.856 11.655 27.891 C 11.655 26.927 10.873 26.145 9.908 26.145 L 9.908 26.145 Z  M 9.908 29.013 C 9.292 29.013 8.786 28.508 8.786 27.891 C 8.786 27.275 9.292 26.769 9.908 26.769 C 10.524 26.769 11.03 27.275 11.03 27.891 C 11.03 28.508 10.532 29.013 9.908 29.013 Z  M 9.908 3.745 C 10.264 3.745 10.593 3.555 10.771 3.246 C 10.948 2.938 10.948 2.558 10.77 2.25 C 10.592 1.942 10.263 1.752 9.907 1.752 C 9.356 1.753 8.911 2.199 8.911 2.75 C 8.911 3.3 9.358 3.746 9.908 3.745 L 9.908 3.745 Z  M 9.908 2.378 C 10.058 2.378 10.194 2.469 10.251 2.608 C 10.309 2.746 10.277 2.906 10.171 3.012 C 10.065 3.118 9.905 3.15 9.766 3.093 C 9.627 3.035 9.537 2.9 9.537 2.75 C 9.545 2.544 9.711 2.378 9.908 2.378 Z " fill="rgb(0,0,0)"/></svg>