<?xml version="1.0" standalone="no"?><!-- Generator: Gravit.io --><svg xmlns="http://www.w3.org/2000/svg" xmlns:xlink="http://www.w3.org/1999/xlink" style="isolation:isolate" viewBox="0 0 32 28.308" width="32" height="28.308"><path d=" M 13.538 0 C 12.192 0 11.077 1.115 11.077 2.462 L 11.077 3.692 L 7.385 3.692 L 7.385 2.462 L 4.923 2.462 L 4.923 3.692 L 2.462 3.692 C 1.115 3.692 0 4.807 0 6.154 L 0 25.846 C 0 27.193 1.115 28.308 2.462 28.308 L 29.538 28.308 C 30.885 28.308 32 27.193 32 25.846 L 32 6.154 C 32 4.807 30.885 3.692 29.538 3.692 L 27.077 3.692 L 27.077 2.462 L 24.615 2.462 L 24.615 3.692 L 20.923 3.692 L 20.923 2.462 C 20.923 1.115 19.808 0 18.462 0 L 13.538 0 Z  M 13.538 2.462 L 18.462 2.462 L 18.462 3.692 L 13.538 3.692 L 13.538 2.462 Z  M 2.462 6.154 L 29.538 6.154 L 29.538 25.846 L 27.077 25.846 L 27.077 7.385 L 24.615 7.385 L 24.615 25.846 L 7.385 25.846 L 7.385 7.385 L 4.923 7.385 L 4.923 25.846 L 2.462 25.846 L 2.462 6.154 Z " fill="rgb(255,218,0)"/></svg>